<svg width="71" height="11" viewBox="0 0 71 11" fill="none" xmlns="http://www.w3.org/2000/svg">
<path d="M0.66113 3.71423C0.403383 3.71423 0.26563 4.01781 0.435358 4.21178L3.77423 8.02764C3.89375 8.16423 4.10625 8.16423 4.22577 8.02763L7.56464 4.21178C7.73437 4.01781 7.59662 3.71423 7.33887 3.71423H0.66113Z" fill="black"/>
<path d="M16.4158 10.084C15.8638 10.084 15.3678 9.988 14.9278 9.796C14.4958 9.596 14.1558 9.324 13.9078 8.98C13.6598 8.628 13.5318 8.224 13.5238 7.768H14.6878C14.7278 8.16 14.8878 8.492 15.1678 8.764C15.4558 9.028 15.8718 9.16 16.4158 9.16C16.9358 9.16 17.3438 9.032 17.6398 8.776C17.9438 8.512 18.0958 8.176 18.0958 7.768C18.0958 7.448 18.0078 7.188 17.8318 6.988C17.6558 6.788 17.4358 6.636 17.1718 6.532C16.9078 6.428 16.5518 6.316 16.1038 6.196C15.5518 6.052 15.1078 5.908 14.7718 5.764C14.4438 5.62 14.1598 5.396 13.9198 5.092C13.6878 4.78 13.5718 4.364 13.5718 3.844C13.5718 3.388 13.6878 2.984 13.9198 2.632C14.1518 2.28 14.4758 2.008 14.8918 1.816C15.3158 1.624 15.7998 1.528 16.3438 1.528C17.1278 1.528 17.7678 1.724 18.2638 2.116C18.7678 2.508 19.0518 3.028 19.1158 3.676H17.9158C17.8758 3.356 17.7078 3.076 17.4118 2.836C17.1158 2.588 16.7238 2.464 16.2358 2.464C15.7798 2.464 15.4078 2.584 15.1198 2.824C14.8318 3.056 14.6878 3.384 14.6878 3.808C14.6878 4.112 14.7718 4.36 14.9398 4.552C15.1158 4.744 15.3278 4.892 15.5758 4.996C15.8318 5.092 16.1878 5.204 16.6438 5.332C17.1958 5.484 17.6398 5.636 17.9758 5.788C18.3118 5.932 18.5998 6.16 18.8398 6.472C19.0798 6.776 19.1998 7.192 19.1998 7.72C19.1998 8.128 19.0918 8.512 18.8758 8.872C18.6598 9.232 18.3398 9.524 17.9158 9.748C17.4918 9.972 16.9918 10.084 16.4158 10.084ZM20.3988 6.688C20.3988 6.016 20.5348 5.428 20.8068 4.924C21.0788 4.412 21.4508 4.016 21.9228 3.736C22.4028 3.456 22.9348 3.316 23.5188 3.316C24.0948 3.316 24.5948 3.44 25.0188 3.688C25.4428 3.936 25.7588 4.248 25.9668 4.624V3.424H27.0708V10H25.9668V8.776C25.7508 9.16 25.4268 9.48 24.9948 9.736C24.5708 9.984 24.0748 10.108 23.5068 10.108C22.9228 10.108 22.3948 9.964 21.9228 9.676C21.4508 9.388 21.0788 8.984 20.8068 8.464C20.5348 7.944 20.3988 7.352 20.3988 6.688ZM25.9668 6.7C25.9668 6.204 25.8668 5.772 25.6668 5.404C25.4668 5.036 25.1948 4.756 24.8508 4.564C24.5148 4.364 24.1428 4.264 23.7348 4.264C23.3268 4.264 22.9548 4.36 22.6188 4.552C22.2828 4.744 22.0148 5.024 21.8148 5.392C21.6148 5.76 21.5148 6.192 21.5148 6.688C21.5148 7.192 21.6148 7.632 21.8148 8.008C22.0148 8.376 22.2828 8.66 22.6188 8.86C22.9548 9.052 23.3268 9.148 23.7348 9.148C24.1428 9.148 24.5148 9.052 24.8508 8.86C25.1948 8.66 25.4668 8.376 25.6668 8.008C25.8668 7.632 25.9668 7.196 25.9668 6.7ZM32.1202 3.304C32.9202 3.304 33.5682 3.548 34.0642 4.036C34.5602 4.516 34.8082 5.212 34.8082 6.124V10H33.7282V6.28C33.7282 5.624 33.5642 5.124 33.2362 4.78C32.9082 4.428 32.4602 4.252 31.8922 4.252C31.3162 4.252 30.8562 4.432 30.5122 4.792C30.1762 5.152 30.0082 5.676 30.0082 6.364V10H28.9162V3.424H30.0082V4.36C30.2242 4.024 30.5162 3.764 30.8842 3.58C31.2602 3.396 31.6722 3.304 32.1202 3.304ZM38.92 10.108C38.416 10.108 37.964 10.024 37.564 9.856C37.164 9.68 36.848 9.44 36.616 9.136C36.384 8.824 36.256 8.468 36.232 8.068H37.36C37.392 8.396 37.544 8.664 37.816 8.872C38.096 9.08 38.46 9.184 38.908 9.184C39.324 9.184 39.652 9.092 39.892 8.908C40.132 8.724 40.252 8.492 40.252 8.212C40.252 7.924 40.124 7.712 39.868 7.576C39.612 7.432 39.216 7.292 38.68 7.156C38.192 7.028 37.792 6.9 37.48 6.772C37.176 6.636 36.912 6.44 36.688 6.184C36.472 5.92 36.364 5.576 36.364 5.152C36.364 4.816 36.464 4.508 36.664 4.228C36.864 3.948 37.148 3.728 37.516 3.568C37.884 3.4 38.304 3.316 38.776 3.316C39.504 3.316 40.092 3.5 40.54 3.868C40.988 4.236 41.228 4.74 41.26 5.38H40.168C40.144 5.036 40.004 4.76 39.748 4.552C39.5 4.344 39.164 4.24 38.74 4.24C38.348 4.24 38.036 4.324 37.804 4.492C37.572 4.66 37.456 4.88 37.456 5.152C37.456 5.368 37.524 5.548 37.66 5.692C37.804 5.828 37.98 5.94 38.188 6.028C38.404 6.108 38.7 6.2 39.076 6.304C39.548 6.432 39.932 6.56 40.228 6.688C40.524 6.808 40.776 6.992 40.984 7.24C41.2 7.488 41.312 7.812 41.32 8.212C41.32 8.572 41.22 8.896 41.02 9.184C40.82 9.472 40.536 9.7 40.168 9.868C39.808 10.028 39.392 10.108 38.92 10.108ZM48.7127 10.084C48.1607 10.084 47.6647 9.988 47.2247 9.796C46.7927 9.596 46.4527 9.324 46.2047 8.98C45.9567 8.628 45.8287 8.224 45.8207 7.768H46.9847C47.0247 8.16 47.1847 8.492 47.4647 8.764C47.7527 9.028 48.1687 9.16 48.7127 9.16C49.2327 9.16 49.6407 9.032 49.9367 8.776C50.2407 8.512 50.3927 8.176 50.3927 7.768C50.3927 7.448 50.3047 7.188 50.1287 6.988C49.9527 6.788 49.7327 6.636 49.4687 6.532C49.2047 6.428 48.8487 6.316 48.4007 6.196C47.8487 6.052 47.4047 5.908 47.0687 5.764C46.7407 5.62 46.4567 5.396 46.2167 5.092C45.9847 4.78 45.8687 4.364 45.8687 3.844C45.8687 3.388 45.9847 2.984 46.2167 2.632C46.4487 2.28 46.7727 2.008 47.1887 1.816C47.6127 1.624 48.0967 1.528 48.6407 1.528C49.4247 1.528 50.0647 1.724 50.5607 2.116C51.0647 2.508 51.3487 3.028 51.4127 3.676H50.2127C50.1727 3.356 50.0047 3.076 49.7087 2.836C49.4127 2.588 49.0207 2.464 48.5327 2.464C48.0767 2.464 47.7047 2.584 47.4167 2.824C47.1287 3.056 46.9847 3.384 46.9847 3.808C46.9847 4.112 47.0687 4.36 47.2367 4.552C47.4127 4.744 47.6247 4.892 47.8727 4.996C48.1287 5.092 48.4847 5.204 48.9407 5.332C49.4927 5.484 49.9367 5.636 50.2727 5.788C50.6087 5.932 50.8967 6.16 51.1367 6.472C51.3767 6.776 51.4967 7.192 51.4967 7.72C51.4967 8.128 51.3887 8.512 51.1727 8.872C50.9567 9.232 50.6367 9.524 50.2127 9.748C49.7887 9.972 49.2887 10.084 48.7127 10.084ZM59.1037 6.46C59.1037 6.668 59.0917 6.888 59.0677 7.12H53.8117C53.8517 7.768 54.0717 8.276 54.4717 8.644C54.8797 9.004 55.3717 9.184 55.9477 9.184C56.4197 9.184 56.8117 9.076 57.1237 8.86C57.4437 8.636 57.6677 8.34 57.7957 7.972H58.9717C58.7957 8.604 58.4437 9.12 57.9157 9.52C57.3877 9.912 56.7317 10.108 55.9477 10.108C55.3237 10.108 54.7637 9.968 54.2677 9.688C53.7797 9.408 53.3957 9.012 53.1157 8.5C52.8357 7.98 52.6957 7.38 52.6957 6.7C52.6957 6.02 52.8317 5.424 53.1037 4.912C53.3757 4.4 53.7557 4.008 54.2437 3.736C54.7397 3.456 55.3077 3.316 55.9477 3.316C56.5717 3.316 57.1237 3.452 57.6037 3.724C58.0837 3.996 58.4517 4.372 58.7077 4.852C58.9717 5.324 59.1037 5.86 59.1037 6.46ZM57.9757 6.232C57.9757 5.816 57.8837 5.46 57.6997 5.164C57.5157 4.86 57.2637 4.632 56.9437 4.48C56.6317 4.32 56.2837 4.24 55.8997 4.24C55.3477 4.24 54.8757 4.416 54.4837 4.768C54.0997 5.12 53.8797 5.608 53.8237 6.232H57.9757ZM61.6371 4.492C61.8291 4.116 62.1011 3.824 62.4531 3.616C62.8131 3.408 63.2491 3.304 63.7611 3.304V4.432H63.4731C62.2491 4.432 61.6371 5.096 61.6371 6.424V10H60.5451V3.424H61.6371V4.492ZM65.5857 2.356C65.3777 2.356 65.2017 2.284 65.0577 2.14C64.9137 1.996 64.8417 1.82 64.8417 1.612C64.8417 1.404 64.9137 1.228 65.0577 1.084C65.2017 0.94 65.3777 0.868 65.5857 0.868C65.7857 0.868 65.9537 0.94 66.0897 1.084C66.2337 1.228 66.3057 1.404 66.3057 1.612C66.3057 1.82 66.2337 1.996 66.0897 2.14C65.9537 2.284 65.7857 2.356 65.5857 2.356ZM66.1137 3.424V10H65.0217V3.424H66.1137ZM70.6508 4.324H69.2708V10H68.1788V4.324H67.3268V3.424H68.1788V2.956C68.1788 2.22 68.3668 1.684 68.7428 1.348C69.1268 1.004 69.7388 0.831999 70.5788 0.831999V1.744C70.0988 1.744 69.7588 1.84 69.5588 2.032C69.3668 2.216 69.2708 2.524 69.2708 2.956V3.424H70.6508V4.324Z" fill="black"/>
</svg>
